<svg width="133" height="35" fill="none" xmlns="http://www.w3.org/2000/svg"><g clip-path="url(#app-store-icon)"><path d="M124 0H6.6C6 0 5.4 0 4.8.2a5.8 5.8 0 0 0-3 1.5A5.5 5.5 0 0 0 .1 4.8L0 6.6v21.8c0 .6 0 1.2.2 1.8a5.8 5.8 0 0 0 1.5 3 5.5 5.5 0 0 0 3.1 1.6 11.8 11.8 0 0 0 2.6.2H125a36.8 36.8 0 0 0 2.5-.2 6 6 0 0 0 3.1-1.5 5.6 5.6 0 0 0 1.6-3.1l.2-1.8V6.6l-.2-1.8c0-.5-.3-1.1-.5-1.6a5.7 5.7 0 0 0-4.2-3l-1.7-.2H124Z" fill="#A6A6A6"/><path d="M7.4 34.2a34.6 34.6 0 0 1-2.4-.1 5.1 5.1 0 0 1-2.7-1.4A4.7 4.7 0 0 1 .9 30l-.1-1.6V6.6L.9 5a5 5 0 0 1 1.4-2.7A4.9 4.9 0 0 1 5 .9L6.6.8H125.8l1.6.1 1.5.5a4.9 4.9 0 0 1 2.6 3.6l.1 1.6v21.8l-.1 1.6a5 5 0 0 1-1.4 2.7 4.7 4.7 0 0 1-2.7 1.4 11 11 0 0 1-2.4.1H7.4Z" fill="#000"/><path d="M21.7 17.8a4.3 4.3 0 0 1 2-3.7 4.4 4.4 0 0 0-3.5-1.9c-1.4-.1-2.8 1-3.6 1-.8 0-2-1-3.2-1a4.7 4.7 0 0 0-3.9 2.5c-1.7 2.9-.4 7.2 1.2 9.6.8 1.1 1.8 2.4 3 2.4s1.7-.8 3.2-.8c1.4 0 1.8.8 3 .8 1.4 0 2.2-1.2 3-2.4.6-.8 1-1.7 1.3-2.7a4.2 4.2 0 0 1-2.5-3.8ZM19.3 10.7c.7-.9 1-2 1-3a4.3 4.3 0 0 0-3.6 2.8 4 4 0 0 0-.3 1.5 3.6 3.6 0 0 0 2.9-1.3ZM31.1 21.4a.5.5 0 1 1 1 0 .5.5 0 0 1-1 0Zm.1 6.2v-5.2h.8v5.2h-.8ZM33.3 23.7h.8v.6a1.2 1.2 0 0 1 1.2-.7 1.3 1.3 0 0 1 1.4 1.5v2.5h-.8v-2.3c0-.7-.3-1-.8-1a.9.9 0 0 0-1 1v2.3h-.8v-4ZM37.7 25.7c0-1.3.6-2 1.6-2a1.3 1.3 0 0 1 1.2.6h.1v-2.2h.8v5.5h-.8V27a1.4 1.4 0 0 1-1.3.7c-1 0-1.6-.8-1.6-2Zm.8 0c0 .8.4 1.3 1 1.3.7 0 1.1-.5 1.1-1.3 0-.9-.4-1.4-1-1.4-.7 0-1 .5-1 1.4ZM42.6 22.5a.5.5 0 1 1 .5.5.5.5 0 0 1-.5-.5Zm0 1.2h.8v4h-.7v-4ZM44.7 23.7h.8v.6a1 1 0 0 1 1-.7h.4v.8h-.4a1 1 0 0 0-1 .9v2.3h-.8v-4ZM47.7 22.5a.5.5 0 1 1 .5.5.5.5 0 0 1-.5-.5Zm.2 1.2h.7v4H48v-4ZM49.9 23.7h.7v.6a1.2 1.2 0 0 1 1.3-.7 1.3 1.3 0 0 1 1.3 1.5v2.5h-.8v-2.3c0-.7-.2-1-.8-1a.9.9 0 0 0-1 1v2.3H50v-4ZM37 15.3H33l-1 3H30l4-11h1.8l3.9 11H38l-1-3Zm-3.7-1.4h3.3L35 9.2l-1.7 4.7ZM48.3 14.3c0 2.4-1.4 4-3.3 4a2.7 2.7 0 0 1-2.5-1.4v4h-1.7V10.3h1.6v1.3a2.8 2.8 0 0 1 2.5-1.4c2 0 3.4 1.6 3.4 4Zm-1.7 0c0-1.6-.8-2.7-2.1-2.7-1.2 0-2 1-2 2.7 0 1.6.8 2.6 2 2.6 1.3 0 2.1-1 2.1-2.6ZM57 14.3c0 2.4-1.3 4-3.3 4a2.7 2.7 0 0 1-2.5-1.4v4h-1.7V10.3h1.6v1.3a2.8 2.8 0 0 1 2.5-1.4c2 0 3.4 1.6 3.4 4Zm-1.7 0c0-1.6-.8-2.7-2-2.7-1.3 0-2.2 1-2.2 2.7 0 1.6.9 2.6 2.1 2.6 1.3 0 2.1-1 2.1-2.6ZM62.7 15.2c.2 1 1.2 1.8 2.6 1.8 1.4 0 2.4-.7 2.4-1.7 0-.8-.6-1.3-2-1.7l-1.4-.3c-2-.5-3-1.4-3-3 0-1.8 1.7-3.1 4-3.1s3.9 1.3 4 3.1h-1.7c0-1-1-1.7-2.3-1.7-1.3 0-2.2.7-2.2 1.6 0 .8.6 1.3 2 1.6l1.2.3c2.2.5 3.1 1.4 3.1 3 0 2-1.6 3.3-4.2 3.3-2.4 0-4-1.2-4.1-3.2h1.6ZM73 8.4v2h1.4v1.2H73V16c0 .6.3 1 1 1h.5v1.2h-.9c-1.6 0-2.2-.5-2.2-2v-4.6h-1.2v-1.3h1.2V8.4h1.6ZM75.3 14.3c0-2.5 1.5-4 3.8-4s3.7 1.5 3.7 4-1.4 4-3.7 4c-2.3 0-3.8-1.5-3.8-4Zm5.9 0c0-1.7-.8-2.8-2.1-2.8-1.4 0-2.1 1-2.1 2.8 0 1.7.7 2.7 2 2.7 1.4 0 2.2-1 2.2-2.7ZM84.2 10.3h1.5v1.4a1.9 1.9 0 0 1 2-1.5h.5v1.6h-.7a1.6 1.6 0 0 0-1.7 1.7v4.7h-1.6v-7.9ZM95.7 15.9c-.2 1.4-1.6 2.4-3.4 2.4-2.3 0-3.7-1.5-3.7-4s1.4-4 3.6-4 3.6 1.4 3.6 3.8v.6h-5.6a2 2 0 0 0 2.1 2.3 1.8 1.8 0 0 0 1.9-1.1h1.5Zm-5.5-2.4h4a1.9 1.9 0 0 0-2-2 2 2 0 0 0-2 2ZM96.9 11.3l.9-4h1.6l-1.1 4h-1.4ZM99.3 14.3c0-2.5 1.3-4 3.3-4a2.7 2.7 0 0 1 2.5 1.3V7.4h1.7v10.8h-1.6V17a2.7 2.7 0 0 1-2.6 1.4c-2 0-3.3-1.6-3.3-4Zm1.7 0c0 1.6.8 2.6 2 2.6 1.3 0 2.1-1 2.1-2.6s-.8-2.7-2-2.7c-1.3 0-2.1 1-2.1 2.7ZM108.2 16c0-1.4 1-2.2 3-2.4h2.1v-.7c0-.9-.6-1.4-1.6-1.4a1.5 1.5 0 0 0-1.6 1.2h-1.6c0-1.5 1.4-2.5 3.3-2.5s3.1 1 3.1 2.6v5.4h-1.5V17a2.8 2.8 0 0 1-2.6 1.5 2.4 2.4 0 0 1-2.6-2.4Zm5.1-.7v-.6h-2c-1 .1-1.5.6-1.5 1.2 0 .7.6 1.2 1.5 1.2a1.9 1.9 0 0 0 2-1.8ZM116.6 10.3h1.5v1.4a2.5 2.5 0 0 1 2.6-1.5c1.7 0 2.7 1.1 2.7 3v5h-1.6v-4.7c0-1.2-.6-1.9-1.7-1.9a1.8 1.8 0 0 0-1.9 2v4.6h-1.6v-7.9Z" fill="#fff"/></g><defs><clipPath id="app-store-icon"><path fill="#fff" d="M0 0h132.4v35H0z"/></clipPath></defs></svg>