<svg width="118" height="35" fill="none" xmlns="http://www.w3.org/2000/svg"><g clip-path="url(#app-gallery-icon)"><path d="M109 0H7c-.6 0-1.2 0-1.7.2A5.6 5.6 0 0 0 .7 4.8L.5 6.5v22c0 .6 0 1.2.2 1.7a5.6 5.6 0 0 0 4.6 4.6L7 35H110.7c.5 0 1.1 0 1.7-.2a5.4 5.4 0 0 0 3-1.6 5.6 5.6 0 0 0 1.6-3l.2-1.7v-22c0-.6 0-1.1-.2-1.7a5.6 5.6 0 0 0-3-4 6 6 0 0 0-1.6-.6 14 14 0 0 0-1.7-.2h-1.8Z" fill="#B6B6B6"/><path d="M7.8 34.3h-.7l-1.7-.1a5 5 0 0 1-1.4-.5l-1.2-.9a4.7 4.7 0 0 1-1.3-2.6c-.2-.6-.2-1.2-.2-1.6V6.5c0-.4 0-1 .2-1.6 0-.5.2-1 .4-1.4.3-.5.5-.9 1-1.2A4.9 4.9 0 0 1 5.4.9L7 .8H110.7l1.6.1 1.4.5a4.9 4.9 0 0 1 2.6 3.5l.1 1.6v22l-.1 1.6a4.8 4.8 0 0 1-4 4l-1.6.2H7.9Z" fill="#000"/><path fill-rule="evenodd" clip-rule="evenodd" d="M24 6.4h-9.6c-4.6 0-6.2 1.7-6.2 6.3v9.7c0 4.5 1.7 6.2 6.2 6.2h9.7c4.6 0 6.2-1.7 6.2-6.2v-9.7c0-4.6-1.6-6.3-6.2-6.3Z" fill="#C8102E"/><path d="M12.6 17.5h.5v3h-.5v-1.2h-1.4v1.1h-.5v-2.9h.5v1.2h1.4v-1.2Zm3.3 1.7c0 .4-.3.7-.7.7-.4 0-.6-.3-.6-.7v-1.7H14v1.7c0 .8.4 1.3 1.2 1.3.8 0 1.3-.5 1.3-1.3v-1.7h-.6v1.7Zm6.8.3-.7-2h-.5l-.6 2-.7-2h-.6l1 3h.5l.7-2 .6 2h.5l1-3h-.6l-.6 2Zm2.3-.3h1v-.6h-1v-.5h1.5v-.6h-2v3h2.1v-.6H25v-.7Zm2.3 1.2h.6v-2.9h-.6v3Zm-9.7-.6-.2.6h-.6l1.2-2.9h.5l1.3 3h-.6l-.3-.7h-1.3Zm.2-.5h1l-.5-1-.5 1ZM19.3 13.8c-2 0-3.7-1.6-3.7-3.7h.5a3.2 3.2 0 0 0 6.3 0h.5c0 2-1.6 3.7-3.6 3.7ZM43.8 13.6h-4l-1 2.7h-1.9l4-10.2h1.7l4.1 10.2h-1.9l-1-2.7Zm-3.6-1.4h3.1l-1.1-3-.4-1.3-.5 1.3-1 3ZM47.8 10.6V8.7h1.6l.1 1A3 3 0 0 1 52 8.6c.5 0 1 0 1.4.3.4.3.8.7 1 1.3.3.5.4 1.2.4 2 0 1-.1 1.7-.4 2.4-.3.6-.7 1-1.3 1.4-.5.3-1.2.5-1.9.5l-1.5-.3v3.2l-1.8.1v-9Zm3 4.6c.8 0 1.3-.3 1.6-.7.4-.5.6-1.2.6-2.1 0-.9-.2-1.5-.5-1.9-.3-.4-.7-.6-1.2-.6l-.9.3-.8.6V15a2.8 2.8 0 0 0 1.3.3ZM56.4 10.6V8.7H58l.1 1a3 3 0 0 1 2.4-1.1c.5 0 1 0 1.4.3.4.3.8.7 1 1.3.3.5.4 1.2.4 2 0 1-.1 1.7-.4 2.4-.3.6-.7 1-1.3 1.4-.5.3-1.2.5-1.9.5l-1.5-.3v3.2l-1.8.1v-9Zm3 4.6c.8 0 1.3-.3 1.6-.7.4-.5.6-1.2.6-2.1 0-.9-.2-1.5-.5-1.9-.3-.4-.7-.6-1.2-.6l-.9.3-.8.6V15a2.8 2.8 0 0 0 1.3.3ZM69.6 16.5c-1 0-2-.2-2.7-.7-.7-.4-1.3-1-1.7-1.7-.4-.8-.6-1.7-.6-2.8 0-1.2.2-2.1.7-3 .4-.7 1-1.3 1.9-1.7a6 6 0 0 1 2.7-.7 7 7 0 0 1 3.2.8L72.6 8c-1-.4-1.8-.6-2.6-.6-.7 0-1.4.1-2 .4A3 3 0 0 0 67 9.2c-.3.5-.5 1.3-.5 2 0 .8.1 1.5.3 2a2.9 2.9 0 0 0 3 1.9 6.2 6.2 0 0 0 2-.4v-2h-2.4v-1.4h4v4.3a9 9 0 0 1-3.7.9ZM80 16.3l-.2-1-1 .8a3.1 3.1 0 0 1-2.7.1 2 2 0 0 1-.8-.8c-.3-.3-.4-.7-.4-1.2 0-.8.3-1.4.8-1.8.6-.4 1.5-.7 2.7-.7l1.4.1v-.1c0-.7-.2-1.2-.4-1.4-.3-.3-.7-.5-1.3-.5L77 10c-.4.1-.8.2-1 .4l-.4-1.3 1.3-.4 1.6-.1c.6 0 1.2 0 1.6.3.5.2.9.5 1.1 1 .3.5.4 1.1.4 2v4.4H80Zm-2.2-1.1c.4 0 .7-.1 1-.3l1-.6v-1.5h-1.2c-.7 0-1.2 0-1.5.3-.3.3-.4.6-.4 1 0 .3.1.6.3.8.2.2.5.3.8.3ZM85.4 16.5c-1.2 0-1.8-.7-1.8-2v-9l1.8-.2v8.9l.1.7.6.2.4-.1.2 1.3-.6.1h-.7ZM89.8 16.5c-1.2 0-1.8-.7-1.8-2v-9l1.7-.2v8.9c0 .3 0 .5.2.7l.5.2.5-.1.2 1.3-.6.1h-.7ZM98.6 12.7h-5c.1 1.6.9 2.4 2.3 2.4h1l1.2-.4.4 1.1c-.9.5-1.9.7-3 .7-.7 0-1.4-.2-2-.5a3 3 0 0 1-1.2-1.3c-.3-.6-.4-1.3-.4-2 0-1 .1-1.7.4-2.3a3.2 3.2 0 0 1 3-1.8 3 3 0 0 1 1.9.5c.5.3.8.7 1 1.3.3.6.4 1.2.4 1.9v.4Zm-1.7-1c0-.7-.2-1.1-.5-1.4-.2-.3-.6-.5-1-.5-.5 0-.9.2-1.2.5-.3.3-.4.7-.5 1.3h3.2ZM100.3 10.6V8.7h1.6a15.5 15.5 0 0 1 .1 1.5l.6-.9.7-.5c.2-.2.5-.2.9-.2h.7l-.2 1.6a2 2 0 0 0-.6-.1c-.4 0-.8 0-1 .3-.4.2-.7.5-1 1v5h-1.8v-5.8ZM106.2 19.5a4.5 4.5 0 0 1-1.5-.2l.3-1.3a4 4 0 0 0 1 .2c.8 0 1.3-.5 1.7-1.5l.1-.3-2.8-7.7h2l1.3 4.3.5 1.7.4-1.7 1.5-4.3h1.7l-2.8 7.7a8 8 0 0 1-.8 1.8 3 3 0 0 1-1.1 1c-.4.2-1 .3-1.5.3ZM36.8 23.9h1v4h-1v-4Zm.5-.6-.4-.1a.5.5 0 0 1-.2-.4.5.5 0 0 1 .6-.5l.3.1c.2.1.2.2.2.4a.5.5 0 0 1-.3.5h-.2ZM39.8 28c-.6 0-1-.4-1-1.1v-4.7h1V27h.5l.1.7h-.3a2 2 0 0 1-.3.1ZM44.3 26h-2.5c0 .8.4 1.2 1.1 1.2h.6l.6-.2.2.6-1.5.3c-.5 0-.8 0-1-.2-.4-.2-.6-.4-.7-.7-.2-.3-.3-.7-.3-1 0-.5.1-.9.3-1.2a1.7 1.7 0 0 1 1.6-1l.9.3.5.7c.2.3.2.6.2 1v.2Zm-.9-.6c0-.3 0-.5-.2-.7a.7.7 0 0 0-.6-.2c-.2 0-.4 0-.5.2-.2.2-.3.4-.3.7h1.6ZM47.6 22.5h1v2.7l.4-.6 1.6-2h1l-1.8 2.3 2 3h-1l-1.6-2.4-.7.7v1.6h-.9v-5.3ZM52.4 22.5h3.1v.8h-2.2v1.5h2v.7h-2V27h2.3l-.1.7h-3v-5.3ZM59.7 26.3c0 .5-.2.8-.4 1.1-.3.3-.7.4-1.2.5v.2l.5.2.2.5c0 .2 0 .4-.2.5l-.8.2c-.3 0-.6 0-.8-.2l.1-.4a1.6 1.6 0 0 0 .7.1h.3l.1-.2c0-.1 0-.2-.2-.3l-.6-.1.2-.5a4 4 0 0 1-1.4-.4l.3-.7a3.5 3.5 0 0 0 1.4.4c.3 0 .5 0 .6-.2.2-.2.3-.3.3-.6 0-.1 0-.3-.2-.4l-.3-.3-.7-.3-.7-.3-.4-.5-.2-.7c0-.3 0-.5.2-.7.2-.3.4-.4.7-.5.2-.2.5-.2.9-.2a3.4 3.4 0 0 1 1.4.3l-.2.7-1.2-.3c-.3 0-.5 0-.6.2-.2 0-.3.2-.3.4l.1.4.4.3.7.3.7.4.4.5.2.6ZM60.7 22.5h3v.8h-2.1v1.5h2v.7h-2v2.3h-1v-5.3ZM64.7 22.5h3v.8h-2.1v1.5h2v.7h-2V27h2.2v.7h-3.1v-5.3ZM68.8 22.5h1.8c.5 0 1 .1 1.4.3.5.2.8.5 1 .9.2.3.3.8.3 1.3 0 .6-.1 1-.3 1.5l-1 1a3 3 0 0 1-1.5.3h-1.7v-5.3Zm1.6 4.6c.5 0 .8 0 1.1-.2.3-.2.5-.5.6-.8.2-.3.3-.6.3-1 0-.6-.2-1-.5-1.4-.3-.3-.8-.4-1.4-.4h-.7V27h.6ZM74.3 22.5h1v5.3h-1v-5.3Zm.5-.4-.4-.1a.5.5 0 0 1-.2-.4.5.5 0 0 1 .6-.5l.4.1.1.4a.5.5 0 0 1-.3.4l-.2.1ZM76.6 22.5h1l2.6 4.1v-4h.9v5.2h-1l-2.7-4.1v4.2h-.8v-5.4Z" fill="#fff"/></g><defs><clipPath id="app-gallery-icon"><path fill="#fff" d="M.5 0h116.7v35H.5z"/></clipPath></defs></svg>