<svg width="119" height="35" fill="none" xmlns="http://www.w3.org/2000/svg"><g clip-path="url(#google-play-icon)"><path d="M114.1 35H4.8c-2.5 0-4.4-2-4.4-4.4V4.4C.4 1.9 2.4 0 4.8 0H114c2.5 0 4.4 2 4.4 4.4v26.2c0 2.5-2 4.4-4.4 4.4Z" fill="#000"/><path d="M114.1.7c2 0 3.7 1.7 3.7 3.7v26.2c0 2-1.7 3.7-3.7 3.7H4.8c-2 0-3.7-1.7-3.7-3.7V4.4C1 2.4 2.7.7 4.8.7H114Zm0-.7H4.8C2.4 0 .4 2 .4 4.4v26.2c0 2.5 2 4.4 4.4 4.4H114c2.5 0 4.4-2 4.4-4.4V4.4c0-2.4-2-4.4-4.4-4.4Z" fill="#A6A6A6"/><path d="M57 11.2a3.2 3.2 0 0 0-3.2 3.2c0 1.9 1.4 3.3 3.2 3.3 1.8 0 3.2-1.4 3.2-3.3.1-1.8-1.4-3.2-3.2-3.2Zm0 5.2c-1 0-1.8-.7-1.8-2 0-1.1.8-2 1.8-2s1.8.8 1.8 2-.8 2-1.8 2Zm-7-5.2a3.2 3.2 0 0 0-3.3 3.2 3.2 3.2 0 1 0 6.4 0c0-1.8-1.4-3.2-3.2-3.2Zm0 5.2c-1 0-2-.7-2-2 0-1.1 1-2 2-2 .9 0 1.7.8 1.7 2s-.8 2-1.8 2Zm-8.6-4.2v1.4h3.3c0 .7-.3 1.3-.7 1.7-.5.4-1.3 1-2.6 1-2 0-3.6-1.6-3.6-3.6S39.4 9 41.4 9c1.2 0 2 .4 2.5 1l1-1c-.9-.8-2-1.4-3.6-1.4a5.2 5.2 0 0 0-5.1 5 5.2 5.2 0 0 0 8.6 3.8c1-1 1.3-2.2 1.3-3.3l-.1-.9h-4.6Zm34.7 1.1c-.3-.7-1.2-2.1-2.8-2.1-1.7 0-3 1.3-3 3.2 0 1.9 1.3 3.3 3.1 3.3 1.5 0 2.4-.9 2.8-1.4l-1.2-.7c-.3.5-.9.8-1.6.8-.7 0-1.2-.3-1.5-1l4.3-1.8-.1-.3Zm-4.5 1c0-1.2 1-1.9 1.7-1.9.5 0 1 .3 1.2.7l-2.9 1.2Zm-3.5 3.2h1.4V8h-1.4v9.5Zm-2.4-5.6c-.3-.4-1-.7-1.7-.7a3.2 3.2 0 0 0-3.2 3.2c0 1.9 1.5 3.3 3.2 3.3.8 0 1.4-.4 1.7-.7h.1v.4c0 1.2-.7 2-1.7 2-.9 0-1.4-.7-1.7-1.2l-1.2.5a3 3 0 0 0 2.9 2c1.6 0 3-1 3-3.5v-5.8h-1.3v.5Zm-1.6 4.5c-1 0-1.9-.7-1.9-1.9 0-1.1.8-2 1.9-2 1 0 1.7.9 1.7 2 0 1-.7 2-1.7 2ZM82.8 8h-3.4v9.5h1.4v-3.6h2c1.6 0 3.2-1.1 3.2-3 0-1.8-1.6-3-3.2-3Zm0 4.5h-2V9.3h2c1 0 1.7.8 1.7 1.6 0 .7-.6 1.6-1.7 1.6Zm8.8-1.3c-1 0-2 .4-2.5 1.5l1.2.5c.3-.5.8-.7 1.3-.7.7 0 1.5.4 1.5 1.2v.1c-.2-.2-.8-.3-1.5-.3-1.4 0-2.7.8-2.7 2.2 0 1.3 1.2 2 2.4 2a2 2 0 0 0 1.8-.9h.1v.7h1.4v-3.7c0-1.6-1.4-2.6-3-2.6Zm-.1 5.2c-.5 0-1.2-.2-1.2-.7 0-.7.8-1 1.5-1 .6 0 1 0 1.3.3 0 .7-.8 1.4-1.6 1.4Zm8-5-1.6 4h-.1l-1.7-4h-1.6l2.6 5.7-1.5 3.3H97l4-9h-1.6Zm-12.8 6.1H88V8h-1.4v9.5Z" fill="#fff"/><path d="M9.5 6.6c-.3.2-.4.7-.4 1.2V27c0 .5.2 1 .5 1.3l10.9-10.8v-.1l-11-11Z" fill="url(#b)"/><path d="m24 21.3-3.6-3.6v-.2l3.6-3.7v.1l4.4 2.5c1.2.7 1.2 1.8 0 2.5L24 21.3Z" fill="url(#c)"/><path d="m24 21.2-3.6-3.7-11 11c.5.4 1.1.4 2 0L24 21.2Z" fill="url(#d)"/><path d="M24 13.8 11.4 6.6c-.8-.5-1.4-.4-1.8 0l11 10.9 3.6-3.7Z" fill="url(#e)"/><path opacity=".2" d="m24 21-12.7 7.3c-.7.4-1.3.3-1.7 0h-.1v.1c.5.4 1.1.5 1.8 0L24 21.1Z" fill="#000"/><path opacity=".1" d="M9.5 28.3C9.2 28 9 27.6 9 27v.1c0 .6.2 1 .5 1.3v-.1h-.1ZM28.4 18.6 24 21.1l4.4-2.4c.6-.3.9-.8.9-1.2 0 .4-.4.8-1 1.1Z" fill="#000"/><path opacity=".3" d="m11.3 6.7 17 9.7c.6.3 1 .7 1 1.1 0-.4-.3-.9-1-1.2l-17-9.7c-1.2-.7-2.2-.2-2.2 1.2 0-1.2 1-1.8 2.2-1.1Z" fill="#fff"/><path d="M37 25.3h-.7v-1.7h.7v1.7ZM38 28.9v-5.4h1.8c.7 0 1.4.3 1.9.7.5.6.7 1.2.7 2s-.3 1.4-.7 1.9c-.5.5-1.2.7-2 .7h-1.6Zm.8-.6h1a2 2 0 0 0 1.4-.6c.4-.3.6-.8.6-1.4a2 2 0 0 0-.6-1.5 2 2 0 0 0-1.4-.6h-1v4ZM46.5 24.2H44V26h2.2v.6H44v1.7h2.5v.7h-3.2v-5.4h3.2v.7ZM47.5 28.9v-5.4h.8l2.7 4.2v-4.2h.7v5.4H51l-2.8-4.4v4.4h-.7ZM53.8 28.9l2-5.4h.8l2 5.4H58l-.6-1.4h-2.2l-.6 1.4h-.7Zm1.5-2.1h1.8l-.9-2.4-.9 2.4ZM59.3 28.9v-5.4h.7v4.7h2.2v.7h-3ZM63 28.9v-5.4h.7V29H63ZM65 28.9v-5.4h.8l2.7 4.2v-4.2h.7v5.4h-.7l-2.8-4.4v4.4H65Z" fill="#fff" stroke="#fff" stroke-width=".2" stroke-miterlimit="10"/></g><defs><linearGradient id="b" x1="19.5" y1="7.6" x2="4.8" y2="22.3" gradientUnits="userSpaceOnUse"><stop stop-color="#00A0FF"/><stop offset="0" stop-color="#00A1FF"/><stop offset=".3" stop-color="#00BEFF"/><stop offset=".5" stop-color="#00D2FF"/><stop offset=".8" stop-color="#00DFFF"/><stop offset="1" stop-color="#00E3FF"/></linearGradient><linearGradient id="c" x1="30" y1="17.5" x2="8.8" y2="17.5" gradientUnits="userSpaceOnUse"><stop stop-color="#FFE000"/><stop offset=".4" stop-color="#FFBD00"/><stop offset=".8" stop-color="orange"/><stop offset="1" stop-color="#FF9C00"/></linearGradient><linearGradient id="d" x1="22.1" y1="19.5" x2="2.2" y2="39.4" gradientUnits="userSpaceOnUse"><stop stop-color="#FF3A44"/><stop offset="1" stop-color="#C31162"/></linearGradient><linearGradient id="e" x1="6.8" y1=".2" x2="15.7" y2="9" gradientUnits="userSpaceOnUse"><stop stop-color="#32A071"/><stop offset=".1" stop-color="#2DA771"/><stop offset=".5" stop-color="#15CF74"/><stop offset=".8" stop-color="#06E775"/><stop offset="1" stop-color="#00F076"/></linearGradient><clipPath id="google-play-icon"><path fill="#fff" d="M.4 0h118v35H.5z"/></clipPath></defs></svg>