<svg width="20" height="20" xmlns="http://www.w3.org/2000/svg"><g fill="none" fill-rule="evenodd"><path d="M16.474 2.427A9.947 9.947 0 0 0 8.276.147 9.972 9.972 0 0 0 .833 5.993 9.965 9.965 0 0 0 0 10c0 5.514 4.47 10 9.966 10a9.938 9.938 0 0 0 7.976-4.004l.092-.125c3.04-4.207 2.362-10.05-1.56-13.444z" fill="#2294DF"/><path d="M11.305 13.153l-.139.99s-.367.467-.717.439c-.35-.028-.48.31-.354.424.127.112.084.678.084.678s-.479.41-.662.793c-.182.382-.62.508-.902.537-.283.029-.268.14-.029.254.24.115-.197.439-.197.439.08.107.204.174.338.184.226.014.015.664.015.664s.45.467 0 .495c-.451.029-1.173-1.3-1.214-1.372-.04-.071.057-.664 0-.664-.056 0-.366-.496-.366-.496s.183-.735 0-.763c-.184-.027 0-1.672 0-1.672s-.282-.382-.663-.466c-.38-.085-.267-.439-.267-.439s-.719-.873-.815-.944c-.097-.07.126-.551.139-.766.012-.216.338-.297.506-.382.043-.021.058-.077.057-.148a.596.596 0 0 0-.602-.573h-.3c-.098 0-.648-.65-.676-.735-.028-.084-.451-.085-.55-.099-.099-.014 0-.298 0-.298h-.338s-.014.07-.197.114c-.184.044-.578-.184-.846-.495-.257-.298-.021-.453 0-.466-.138.052-.576-.807-.576-.807s0-.438-.056-.565c-.056-.127-.212.028-.212.028l.042.594c.098.144.207.281.325.41.098.085.014.34-.14.34-.152 0-.552-.65-.552-.65l-.075-.893c-.433-.039-.32-.68-.32-.68l.262-1.114a10.01 10.01 0 0 1 2.125-2.6c.438-.216.81-.405.898-.466.237-.17.844.209.886.226.168.044.328.11.477.198.24.14.409-.07.366-.198-.042-.128-.493-.015-.605-.042-.113-.028.1-.114.1-.227s-.295-.029-.479-.042c-.183-.014.155-.198.606-.34.45-.141.649.198.707.27.058.07.226.042.339.069.112.027.267-.227.45-.24.184-.013-.013.254-.126.339-.112.085-.451.07-.564.099-.112.029.113.254.056.325-.056.071.437.043.494-.07.056-.112.268-.07.493-.07.226 0 .028-.24-.113-.339-.14-.098.194-.227.22-.269.027-.04.353.028.522 0 .17-.027-.084.21-.211.394-.127.185.211.156.338.183.126.028.197-.339.324-.494.127-.156.536-.07 1.111.085.576.154.38.523.466.508.084-.014.267.17.255.298-.012.128-.34.14-.439.056-.098-.082-.139.226-.296.283-.157.058-.662-.139-.775-.226-.112-.087.55-.21.578-.467.029-.258-.592-.14-.719-.07-.126.07-.324.382-.479.311-.155-.071-.183.114-.07.204.115.09.058.093-.098.065-.155-.028-.084.099-.24.21-.155.11-.239-.21-.31-.27-.07-.058-.267.21-.563.283-.296.073-.392.23-.643.555-.252.326.818.326.86.368.043.042-.028.424.07.537.098.113.225-.31.225-.381 0-.07.296-.156.648-.156.352 0 .085-.58.057-.778-.029-.198.366-.17.451-.226.085-.056.465.255.465.255s0 .296.138.381c.14.086.353-.254.548-.296.194-.043 0 .622.101.622s.267.367.281.466c.014.1-.041.24-.225.312-.183.07.254.183.254.183s.226.099-.043.226c-.268.128-.521-.184-.563-.254-.041-.07.197-.155.195-.311-.003-.157-.153-.07-.223.085-.07.154-.325.098-.592-.113-.267-.212-.367.184-.367.184s.353.113.367.225c.015.112-.31.029-.508 0-.197-.03-.408.41-.464.537-.056.127-.705.566-.972.717-.268.151-.183.471-.183.471s-.381.312-.52.368c-.139.057-.436.397-.38.595.056.197-.112.296-.38.197-.269-.099.042-.453.042-.453s-.493.07-.86-.027c-.367-.098-.746.225-1.085.692-.338.467.014.679.14.906.124.227.549-.085.549-.085s.465-.34.563-.198c.1.142-.197.524-.197.524s.634 0 .521.395c-.113.396-.064.594.451.637.634.051.69-.311.86-.51.17-.198.704.227.803.376.099.149.367-.036.676-.135.31-.1.578.58.578.58s.183.028.536.098c.352.07.409.807.409.807a2 2 0 0 1 .479.34c.168.183.986-.015.986-.015s.042.283.507.551c.464.269-.282.876-.282.876zM14.827 4.026s-.394-.227-.303-.39c.092-.161.31-.282.367-.176.056.106.07.523.204.566.135.042.444.279.374.304-.07.025-.127.278-.24.269-.112-.01-.555.063-.578-.036-.022-.099-.12-.31.028-.31s.276-.142.148-.227z" fill="#A1E366"/><path d="M14.475 3.87s-.437.1-.48.297c-.042.198-.083.367.184.269a.937.937 0 0 0 .41-.297s.04-.177 0-.198a1.194 1.194 0 0 1-.114-.07zM19.93 10a9.982 9.982 0 0 1-1.897 5.871c-.314.228-.536.36-.61.344-.406-.092-.17-.136-.17-.545 0-.41-.227-.326-.381-.552-.155-.225.042-.961.042-.961-.367-.085-.282-.58-.282-.58.366-.891.296-.836-.113-1.443-.41-.606-.183-1.285-.183-1.285l-.606-.07s-.296-.382-.606-.198-.902.128-.902.128-.367.155-.536.14c-.169-.017-.817-.949-.937-1.034-.12-.085-.007-.906.077-.906.085 0 .226-.311.07-.339-.156-.028-.14-.368-.14-.368-.098-.209.888-.679 1.057-.778.169-.099 0-.395 0-.537 0-.141.452-.31.473-.31.022 0 .625.084.71.041.085-.042.114-.155.931-.209.817-.054.522.382.465.48-.056.1.38.114.536.114.155 0 .493.198.605.283.113.085.114-.34.325-.439.21-.099.577.255.732.34.155.085.733 0 .733 0s-.23-.262-.126-.481c.102-.219-.32-.366-.423-.31-.103.056-.282-.1-.423-.17-.141-.072 0-.566 0-.566l-.184.124s-.155-.056-.198.311c-.042.368-.225.156-.394-.014-.17-.17 0-.452 0-.452s-.155-.043-.324-.311c-.168-.269-.423-.184-.592-.17-.17.014.113.424.226.452.112.028.465.298.465.298s-.156.041-.113.126c.042.085-.056.283-.113.27-.056-.015-.197.099-.197.099s-.564-.156-.07-.255c.495-.099-.323-.48-.436-.523-.113-.043-.171-.31-.171-.31a2.526 2.526 0 0 0-.208.27c-.015.042-.198-.014-.367-.07-.169-.056-.37.397-.37.397s-.363.438-.49.48c-.127.043-.634-.014-.764-.084s-.07-.41-.086-.594c-.018-.183.213-.227.383-.283.17-.057.464.042.534.084s.17-.155.112-.279c-.057-.123-.112-.098-.112-.098a1.495 1.495 0 0 0 0-.368c-.029-.128.535-.156.595-.14.06.016.194-.442.306-.513.113-.07.55.07.775.064.225-.007-.084-.517-.084-.517s-.183.128-.324.128c-.141 0-.108-.188-.092-.298.016-.11-.244-.014-.286-.061-.043-.047.042-.066-.1-.109-.14-.042.198-.398.44-.387.223.013.346-.444.364-.503A9.99 9.99 0 0 1 19.93 10z" fill="#A1E366"/></g></svg>